<svg version="1.2" xmlns="http://www.w3.org/2000/svg" viewBox="0 0 500 500" width="500" height="500">
	<title>icon</title>
	<style>
		.s0 { fill: #c6bee1 } 
	</style>
	<path id="&lt;Compound Path&gt;" fill-rule="evenodd" class="s0" d="m256.6 223.7c-3.8-105.1 142.6-117.7 143.4-153.4l-0.7-61.3 15.6 59.7c13.2 50.8-1.5 102.4-23.4 138.7l-2.2 4.2-0.1 0.6c-0.7 5.8 5.5 19.9 7.1 23 11.1 20.1 17.4 11.5 13.4 26.1l-18.3 65.7-6.7 5.5c-24.5 11.7-46.4 27.1-64.3 42.2-27.3 23.1-44.9 45-48.4 52.4-4.1 8.8-11.1 7-21.6 7-10.4 0-17.5 1.8-21.5-7-3.5-7.4-21.2-29.3-48.5-52.4-17.9-15.1-39.7-30.5-64.3-42.2l-6.6-5.5-18.3-65.7c-4-14.6 2.3-6 13.3-26.1 1.7-3.1 7.9-17.2 7.2-23l-0.1-0.6-2.2-4.2c-21.9-36.3-36.6-87.9-23.4-138.7l15.6-59.7-0.7 61.3c0.8 35.7 147.2 48.3 143.4 153.4zm-46.4 121.8c-15.6-25.5-32.9-37.4-49-48.4l-23.9-18.6-6 2.8-2.6 2.6c-7.1 8.8-6.2 24.7-5.1 35.4 43.7 21.1 94.8 63.7 116.2 96.8l-7.3-23.1zm-53-109.3l0.6 0.4 2.7 1.4 3.3 1.7 2.7 1.3c4.3-6.8 7.2-13.8 6.7-22v-1.1l-1.4-6.3-0.3-1-0.8-2.1-4.4-8-2-3-2.4-3-27.3-27.8c-15.4-15-28.6-29.2-38.3-48.6 0.8 11.8 2.8 23 5.5 33.1 6.9 25.5 15.4 39 21.9 50.8 7.1 12.9 12.2 19.5 23.2 27.6l3.1 2.2 1.9 1.3 2 1.2zm119.4 103c1-4.3-2.5-39.3-0.2-52.4 4.1-22.5 24.6-31 43.8-39.4-9-14.8-13.1-29.4-4.8-45.9 16.5-32.9 64.2-55.4 79.8-101.1-9.6 6.9-22.1 13.3-35.4 20.1-41 21-92.3 47.2-87.9 106.6 1.1 14.2-9.4 11.7-21.5 11.7-12.1 0-22.6 2.5-21.6-11.7 4.5-59.4-46.8-85.6-87.8-106.6-13.4-6.8-25.8-13.2-35.5-20.1 15.7 45.7 63.3 68.2 79.9 101.1 8.2 16.5 4.2 31.1-4.8 45.9 19.2 8.4 39.7 16.9 43.7 39.4 2.4 13.1-1.1 48.1-0.2 52.4l6.9 12.3 15.9 36.5 3.5 10.4 3.5-10.4 15.9-36.5zm97.1-73.3c6.9 3.1 11.7 9 14.6 15.9l6.4-23.6c-3-3-7.1-7.6-10.9-14.2l-3 8.6-0.4 1zm-105.6 127.1l-7.4 23c21.5-33.1 72.6-75.7 116.3-96.7 1-10.7 2-26.7-5.2-35.5l-2.5-2.5-6.1-2.8-23.9 18.6c-16.1 11-33.3 22.9-48.9 48.4zm78.6-158.7l1.9-1.2 2-1.3 3.1-2.2c11-8 16.1-14.6 23.1-27.5 6.6-11.9 15.1-25.4 22-50.9 2.7-10.1 4.7-21.2 5.5-33.1-9.7 19.5-22.9 33.7-38.3 48.7l-27.4 27.8-2.3 2.9-2.1 3-4.3 8.1-0.8 2-0.4 1-1.3 6.4-0.1 1c-0.5 8.2 2.5 15.3 6.8 22.1l2.7-1.3 3.3-1.7 2.7-1.5 0.6-0.4zm-56 61.6l0.5 22.6 1.8-2.2 1.9-2.1 1.3-1.3 1.2-1.4 1.9-1.9 0.6-0.6 12.6-11.1 18.3-13.3c18.6-12.7 29.9-21.1 37.1-40.9l2.5-8.1c-12.6 11.3-25.1 17.1-41.1 24.4-20 8.7-38.6 15.9-38.6 35.9zm-170.5-42.2l-0.4-1-3.1-8.6c-3.8 6.5-7.9 11.2-10.9 14.1l6.4 23.6c3-6.9 7.8-12.7 14.6-15.8zm51 6.3c-16-7.3-28.5-13.1-41.1-24.4l2.4 8.1c7.3 19.8 18.6 28.2 37.2 40.9l18.3 13.3 12.6 11.1 0.6 0.6 1.9 1.9 1.2 1.4 1.3 1.3 1.8 2.1 1.9 2.2 0.5-22.6c0-20-18.6-27.2-38.6-35.9z"/>
	<path id="SNIGDHA OS" class="s0" aria-label="SNIGDHA OS"  d="m143.6 456q0 0.9 0.5 1.6 0.5 0.8 1.3 1.4 0.9 0.7 2 1.3 1.1 0.6 2.2 1.3 1.1 0.7 2.2 1.5 1.1 0.8 1.9 1.9 0.9 1 1.4 2.3 0.5 1.3 0.6 3v0.1q0 1.8-0.5 3.2-0.4 1.3-1.1 2.3-0.7 0.9-1.7 1.6-1 0.6-2.1 1-1 0.3-2.1 0.5-1.1 0.2-2.1 0.2h-0.2q-1.8 0-3.2-0.4-1.4-0.4-2.5-1-1-0.6-1.7-1.4-0.6-0.8-1-1.7-0.4-0.9-0.6-1.7-0.2-0.9-0.2-1.6 0-0.8 0.3-1.4 0.3-0.6 0.7-0.9 0.4-0.4 1-0.6 0.6-0.1 1.2-0.1 0.5 0 1.1 0.1 0.6 0.2 1.1 0.6 0.5 0.3 0.8 0.9 0.4 0.6 0.4 1.3 0 1.7 0.7 2.3 0.7 0.6 2.1 0.6 0.6-0.1 1.2-0.2 0.5-0.1 0.9-0.5 0.4-0.4 0.7-1 0.2-0.6 0.2-1.5 0-1.1-0.5-2.1-0.5-0.9-1.4-1.7-0.8-0.8-1.9-1.5-1.1-0.7-2.2-1.4-1.1-0.7-2.2-1.5-1-0.8-1.9-1.7-0.8-0.9-1.4-2-0.5-1.2-0.5-2.6v-0.3q0-2.4 0.6-4 0.6-1.5 1.8-2.4 1.2-1 2.9-1.3 1.7-0.4 3.9-0.4h0.6q2 0 3.4 0.4 1.4 0.4 2.4 1.1 0.9 0.7 1.4 1.6 0.6 0.8 0.8 1.7 0.3 0.8 0.4 1.5 0 0.7 0 1.2 0 0.6-0.2 1.2-0.3 0.5-0.7 0.9-0.4 0.4-1 0.6-0.6 0.2-1.3 0.2-0.5 0-1-0.2-0.6-0.2-1-0.6-0.4-0.3-0.7-0.7-0.2-0.5-0.2-0.9 0-1.8-0.7-2.5-0.6-0.7-1.9-0.7-0.6 0-1.1 0.1-0.6 0-1 0.3-0.4 0.3-0.7 0.9-0.2 0.7-0.2 1.8zm26.6-5l7 18.9h0.5v-18.2q0-0.7 0.1-1.4 0.1-0.6 0.4-1 0.3-0.5 0.9-0.8 0.6-0.3 1.6-0.3 1.1 0 1.7 0.3 0.7 0.3 1 0.8 0.4 0.4 0.5 1 0 0.7 0 1.4v22.2q0 1 0 1.9-0.1 0.9-0.4 1.6-0.3 0.7-0.9 1.2-0.7 0.4-1.9 0.4h-2.9q-1 0-1.7-0.4-0.7-0.4-1.2-1-0.5-0.6-0.7-1.2-0.3-0.7-0.5-1.1l-6.6-18h-0.5v18.3q0 0.7-0.1 1.3-0.1 0.6-0.4 1.1-0.3 0.5-0.9 0.7-0.6 0.3-1.6 0.3-1.1 0-1.8-0.3-0.6-0.2-1-0.7-0.3-0.5-0.4-1.1-0.1-0.6-0.1-1.3v-22.3q0-1 0.1-1.9 0.1-0.9 0.4-1.6 0.3-0.7 0.9-1.1 0.7-0.5 1.9-0.5h2.9q1.1 0 1.8 0.5 0.7 0.4 1.2 0.9 0.4 0.6 0.7 1.4zm20.5 22.9v-20.6q0-1 0.1-1.9 0.1-0.9 0.4-1.6 0.4-0.7 1.1-1.1 0.7-0.5 2-0.5 1.3 0 2 0.5 0.7 0.4 1.1 1.1 0.4 0.7 0.4 1.6 0.2 0.9 0.2 1.9v20.6q0 1-0.1 1.9-0.1 0.9-0.5 1.6-0.3 0.7-1.1 1.2-0.7 0.4-2 0.4-1.3 0-2-0.4-0.7-0.5-1.1-1.2-0.3-0.7-0.4-1.6-0.1-0.9-0.1-1.9zm34.5-6.3v9.4q0 0.3-0.1 0.6-0.1 0.4-0.3 0.8-0.2 0.3-0.7 0.5-0.4 0.3-1.1 0.3-0.9 0-1.4-0.2-0.4-0.3-0.7-0.6-0.2-0.4-0.3-0.7-0.1-0.4-0.1-0.7v-1.3q-1.1 1.5-2.7 2.5-1.6 1-4 1-0.4 0-1.3-0.1-0.9-0.1-2-0.3-1.1-0.3-2.3-0.9-1.1-0.6-2.1-1.6-0.9-1-1.6-2.5-0.6-1.6-0.6-3.8v-12.3q0-1.8 0.5-3.2 0.4-1.3 1.1-2.3 0.7-1.1 1.7-1.8 0.9-0.7 1.9-1.1 2.2-1.1 5.1-1.2 2.4 0 4.1 0.5 1.8 0.6 3 1.4 1.2 0.9 1.9 2 0.7 1.1 1.1 2.3 0.4 1.1 0.6 2.2 0.1 1 0.1 1.8 0 0.3-0.1 0.8 0 0.5-0.4 0.9-0.3 0.4-1 0.7-0.7 0.3-2 0.3-0.5 0-1.2 0-0.6-0.1-1.2-0.3-0.7-0.2-1.1-0.6-0.4-0.5-0.4-1.2 0-1.2-0.2-2.1-0.1-1-0.5-1.6-0.4-0.7-1-1-0.7-0.4-1.7-0.4-1.1 0-1.7 0.5-0.6 0.4-0.8 0.9-0.3 0.6-0.4 1.4v14.1q0 0.7 0.3 1.3 0.2 0.6 0.7 1.1 0.4 0.5 1.1 0.7 0.6 0.3 1.3 0.3 0.9 0 1.6-0.4 0.8-0.4 1.3-1 0.6-0.7 1-1.5 0.5-0.8 0.8-1.7h-2.1q-0.6-0.1-1.1-0.4-0.4-0.2-0.8-0.6-0.3-0.5-0.3-1.2 0-0.9 0.3-1.3 0.4-0.5 0.8-0.7 0.5-0.2 1.1-0.3h5.7q0.2 0 0.5 0.1 0.4 0 0.7 0.3 0.4 0.3 0.7 0.8 0.3 0.5 0.3 1.4zm8.1-19.4h6.4q2 0 3.7 0.5 1.7 0.6 3 1.6 1.3 1 2 2.4 0.8 1.5 0.8 3.5v13.7q0 1.7-0.4 3-0.4 1.3-1 2.3-0.6 0.9-1.4 1.6-0.7 0.6-1.5 1.1-1.9 1-4.3 1.1h-7.3q-1.3 0-1.9-0.4-0.7-0.5-1-1.2-0.3-0.7-0.4-1.6-0.1-0.9-0.1-1.9v-20.7q0-0.9 0.1-1.8 0.1-0.9 0.4-1.6 0.3-0.7 1-1.1 0.6-0.5 1.9-0.5zm6.2 5.2h-2.9v20.4h2.9q0.9-0.1 1.7-0.5 0.3-0.1 0.6-0.4 0.3-0.2 0.5-0.6 0.3-0.4 0.4-0.9 0.2-0.5 0.2-1.1v-13q0-0.7-0.2-1.3-0.1-0.6-0.4-1-0.2-0.4-0.5-0.7-0.3-0.3-0.6-0.4-0.8-0.5-1.7-0.5zm14.7 20.5v-20.6q0-1 0.1-1.9 0.1-0.9 0.5-1.6 0.3-0.7 1-1.1 0.6-0.5 1.8-0.5 1.1 0 1.8 0.5 0.7 0.4 1 1.1 0.4 0.7 0.4 1.6 0.1 0.9 0.1 1.9v6.9h6v-6.9q0-1 0.1-1.9 0.1-0.9 0.5-1.6 0.3-0.7 1-1.1 0.6-0.5 1.8-0.5 1.1 0 1.8 0.5 0.7 0.4 1 1.1 0.4 0.7 0.4 1.6 0.1 0.9 0.1 1.9v20.6q0 1-0.1 1.9 0 0.9-0.4 1.6-0.3 0.7-1 1.2-0.7 0.4-1.8 0.4-1.2 0-1.8-0.4-0.7-0.5-1-1.2-0.4-0.7-0.5-1.6-0.1-0.9-0.1-1.9v-7.2h-6v7.2q0 1-0.1 1.9 0 0.9-0.4 1.6-0.3 0.7-1 1.2-0.7 0.4-1.8 0.4-1.2 0-1.8-0.4-0.7-0.5-1-1.2-0.4-0.7-0.5-1.6-0.1-0.9-0.1-1.9zm34.4-19.9l-3.3 11.7h7l-3.2-11.7zm5.9-1.6l4.6 15.5q0 1.5 0.1 3 0.1 1.6 0.1 3v0.7q0 0.8-0.1 1.6 0 0.8-0.3 1.4-0.3 0.7-0.9 1-0.6 0.4-1.8 0.4-1.1 0-1.7-0.4-0.6-0.3-0.9-1-0.3-0.6-0.4-1.4 0-0.8 0-1.6v-3.1h-8.8v3.1q0 0.8-0.1 1.6 0 0.8-0.3 1.4-0.3 0.7-0.9 1-0.7 0.4-1.8 0.4-1.1 0-1.8-0.4-0.6-0.3-0.9-1-0.2-0.6-0.3-1.4 0-0.8 0-1.6v-0.7q0-0.6 0-1.4 0-0.8 0-1.6 0-0.8 0.1-1.5 0-0.8 0-1.5 1.1-3.8 2.3-7.8 1.2-3.9 2.3-7.7 0.2-0.8 0.5-1.6 0.3-0.8 0.9-1.3 0.5-0.6 1.2-0.9 0.8-0.4 2.1-0.4h2.2q1.2 0 2 0.4 0.8 0.3 1.3 0.9 0.5 0.5 0.8 1.3 0.3 0.8 0.5 1.6zm26.2 17.7v-13.2q0-2.1 0.6-3.5 0.6-1.5 1.6-2.5 1-1 2.1-1.6 1.2-0.5 2.2-0.8 1.1-0.3 2-0.4 0.9 0 1.3 0h0.8q0.4 0 1.3 0 0.8 0.1 1.9 0.4 1.1 0.3 2.2 0.8 1.2 0.6 2.1 1.6 1 1 1.6 2.5 0.6 1.4 0.6 3.5v13.2q0 2.2-0.6 3.7-0.6 1.5-1.6 2.5-0.9 1-2.1 1.6-1.1 0.6-2.2 0.9-1.1 0.2-1.9 0.3-0.9 0.1-1.3 0.1h-0.8q-0.4 0-1.3-0.1-0.9-0.1-2-0.3-1-0.3-2.2-0.9-1.1-0.6-2.1-1.6-1-1-1.6-2.5-0.6-1.5-0.6-3.7zm7.3-13.5v14.3q0.1 0.8 0.4 1.4 0.3 0.6 0.8 1 0.6 0.5 1.7 0.5 1.1 0 1.6-0.5 0.6-0.4 0.9-1 0.3-0.6 0.4-1.4v-14.3q-0.1-0.8-0.4-1.4-0.3-0.6-0.9-1-0.5-0.5-1.6-0.5-1.1 0-1.7 0.5-0.5 0.4-0.8 1-0.3 0.6-0.4 1.4zm24-0.6q0 0.9 0.5 1.6 0.5 0.8 1.3 1.4 0.9 0.7 2 1.3 1.1 0.6 2.2 1.3 1.1 0.7 2.2 1.5 1.1 0.8 1.9 1.9 0.9 1 1.4 2.3 0.5 1.3 0.6 3v0.1q0 1.8-0.5 3.2-0.4 1.3-1.1 2.3-0.7 0.9-1.7 1.6-1 0.6-2.1 1-1 0.3-2.1 0.5-1.1 0.2-2 0.2h-0.3q-1.8 0-3.2-0.4-1.4-0.4-2.5-1-1-0.6-1.7-1.4-0.6-0.8-1-1.7-0.4-0.9-0.6-1.7-0.2-0.9-0.2-1.6 0-0.8 0.3-1.4 0.3-0.6 0.7-0.9 0.4-0.4 1-0.6 0.6-0.1 1.2-0.1 0.5 0 1.1 0.1 0.6 0.2 1.1 0.6 0.5 0.3 0.8 0.9 0.4 0.6 0.4 1.3 0 1.7 0.7 2.3 0.7 0.6 2.1 0.6 0.6-0.1 1.2-0.2 0.5-0.1 0.9-0.5 0.4-0.4 0.7-1 0.2-0.6 0.2-1.5 0-1.1-0.5-2.1-0.5-0.9-1.4-1.7-0.8-0.8-1.9-1.5-1.1-0.7-2.2-1.4-1.1-0.7-2.2-1.5-1-0.8-1.9-1.7-0.8-0.9-1.4-2-0.5-1.2-0.5-2.6v-0.3q0-2.4 0.6-4 0.6-1.5 1.8-2.4 1.2-1 2.9-1.3 1.7-0.4 3.9-0.4h0.6q2 0 3.4 0.4 1.4 0.4 2.4 1.1 0.9 0.7 1.4 1.6 0.6 0.8 0.8 1.7 0.3 0.8 0.4 1.5 0 0.7 0 1.2 0 0.6-0.2 1.2-0.3 0.5-0.7 0.9-0.4 0.4-1 0.6-0.6 0.2-1.3 0.2-0.5 0-1-0.2-0.6-0.2-1-0.6-0.4-0.3-0.7-0.7-0.2-0.5-0.2-0.9 0-1.8-0.7-2.5-0.6-0.7-1.9-0.7-0.6 0-1.1 0.1-0.6 0-1 0.3-0.4 0.3-0.7 0.9-0.2 0.7-0.2 1.8z"/>
	<path id="be silent when it is time to hea" class="s0" aria-label="be silent when it is time to hear"  d="m139 484.7q0.8 0 1.4 0.4 0.6 0.4 0.9 1.1 0.3 0.7 0.3 1.7 0 1-0.4 1.7-0.4 0.8-1.2 1.1-0.7 0.4-1.8 0.4-0.9 0-2.1-0.1v-8.7h1.3v3.7h0.1q0.1-1.3 1.5-1.3zm-0.6 5.4q1 0 1.5-0.6 0.4-0.6 0.4-1.6 0-1-0.3-1.6-0.4-0.5-1.1-0.5-1.5 0-1.5 1.7v2.5q0.3 0.1 1 0.1zm9.9-2.4q0 0.4 0 0.8h-4.2q0.2 0.7 0.7 1.1 0.6 0.4 1.5 0.4 0.7 0 1.5-0.1l0.2 1.1q-0.9 0.1-1.8 0.1-1.1 0-1.8-0.4-0.7-0.3-1.1-1-0.4-0.8-0.4-1.8 0-1 0.3-1.7 0.4-0.7 1-1.1 0.6-0.4 1.5-0.4 1.2 0 1.9 0.8 0.7 0.8 0.7 2.2zm-4.2-0.2h3.1q0-0.8-0.4-1.2-0.4-0.5-1.1-0.5-0.7 0-1.1 0.5-0.5 0.4-0.5 1.2zm14.9 3.6q-0.7 0-1.2 0-0.5-0.1-0.9-0.2l0.2-1.1q1.1 0.2 1.9 0.2 1 0 1.4-0.2 0.4-0.1 0.4-0.5 0-0.3-0.1-0.5-0.2-0.1-0.5-0.2l-1.4-0.3q-0.6-0.2-1-0.4-0.3-0.2-0.5-0.5-0.2-0.3-0.2-0.7 0-0.7 0.4-1.1 0.3-0.5 1-0.7 0.7-0.2 1.8-0.2 0.8 0 1.6 0.2l-0.1 1q-0.9-0.1-1.5-0.1-1 0-1.5 0.2-0.4 0.2-0.4 0.6 0 0.3 0.2 0.4 0.1 0.1 0.5 0.2l1.1 0.3q0.7 0.1 1.1 0.4 0.4 0.2 0.6 0.5 0.2 0.3 0.2 0.8 0 0.7-0.3 1.1-0.4 0.4-1 0.6-0.7 0.2-1.8 0.2zm7.8-7.2q-0.2 0-0.4-0.1-0.2-0.1-0.4-0.3-0.1-0.2-0.1-0.5 0-0.2 0.1-0.4 0.2-0.2 0.4-0.3 0.2-0.1 0.4-0.1 0.2 0 0.4 0.1 0.2 0.1 0.3 0.3 0.1 0.2 0.1 0.4 0 0.3-0.1 0.5-0.1 0.2-0.3 0.3-0.2 0.1-0.4 0.1zm0.7 1v5.1h1.9v1h-5.5v-1h2.3v-4.1h-2v-1zm8.5 4.9l0.2 1.1q-0.5 0.1-0.9 0.2-0.5 0-1 0-0.7 0-1.1-0.2-0.5-0.3-0.7-0.8-0.2-0.6-0.2-1.4v-5.4h-1.8v-1h3.1v6.3q0 0.5 0 0.8 0.1 0.3 0.4 0.5 0.3 0.1 0.8 0.1 0.3 0 0.5 0 0.3-0.1 0.7-0.2zm7.1-2.1q0 0.4 0 0.8h-4.2q0.2 0.7 0.8 1.1 0.5 0.4 1.5 0.4 0.7 0 1.5-0.1l0.1 1.1q-0.8 0.1-1.8 0.1-1 0-1.8-0.4-0.7-0.3-1.1-1-0.4-0.8-0.4-1.8 0-1 0.4-1.7 0.3-0.7 0.9-1.1 0.6-0.4 1.5-0.4 1.3 0 1.9 0.8 0.7 0.8 0.7 2.2zm-4.2-0.2h3.1q0-0.8-0.4-1.2-0.4-0.5-1.1-0.5-0.7 0-1.1 0.5-0.4 0.4-0.5 1.2zm8.9-2.8q1 0 1.6 0.6 0.5 0.6 0.5 1.7v4h-1.2v-4q0-0.6-0.3-0.9-0.3-0.3-0.8-0.3-1.5 0-1.5 1.7v3.5h-1.2v-6.1h1.1l0.1 1.1h0.1q0.1-0.6 0.5-0.9 0.4-0.4 1.1-0.4zm9.1 5.2l0.1 1.1q-0.8 0.1-1.6 0.1-0.9 0-1.5-0.2-0.6-0.3-0.9-0.8-0.3-0.6-0.3-1.4v-2.8h-1.5v-1h1.5v-1.9h1.3v1.9h2.8v1h-2.8v2.7q0 0.8 0.3 1.1 0.4 0.3 1.2 0.3 0.3 0 0.6 0 0.3 0 0.8-0.1zm12.8 0.3l0.4-5.3h1.2l-0.7 6.2h-1.6l-0.8-5h-0.1l-0.8 5h-1.6l-0.5-6.2h1.1l0.4 5.3h0.1l0.7-5.3h1.3l0.8 5.3zm5.9-5.5q1 0 1.6 0.6 0.5 0.6 0.5 1.7v4h-1.2v-4q0-0.6-0.3-0.9-0.3-0.3-0.8-0.3-1.5 0-1.5 1.7v3.5h-1.2v-8.7h1.2v3.7h0.1q0.1-0.6 0.5-0.9 0.4-0.4 1.1-0.4zm9.2 3q0 0.4 0 0.8h-4.2q0.2 0.7 0.8 1.1 0.5 0.4 1.5 0.4 0.7 0 1.5-0.1l0.1 1.1q-0.8 0.1-1.8 0.1-1 0-1.8-0.4-0.7-0.3-1.1-1-0.4-0.8-0.4-1.8 0-1 0.4-1.7 0.3-0.7 0.9-1.1 0.6-0.4 1.5-0.4 1.3 0 1.9 0.8 0.7 0.8 0.7 2.2zm-4.2-0.2h3.1q0-0.8-0.4-1.2-0.4-0.5-1.1-0.5-0.7 0-1.1 0.5-0.4 0.4-0.5 1.2zm8.9-2.8q1 0 1.6 0.6 0.5 0.6 0.5 1.7v4h-1.2v-4q0-0.6-0.3-0.9-0.3-0.3-0.8-0.3-1.5 0-1.5 1.7v3.5h-1.2v-6.1h1.1l0.1 1.1h0.1q0.1-0.6 0.5-0.9 0.4-0.4 1.1-0.4zm13.8-0.8q-0.2 0-0.4-0.1-0.2-0.1-0.3-0.3-0.1-0.2-0.1-0.5 0-0.2 0.1-0.4 0.1-0.2 0.3-0.3 0.2-0.1 0.4-0.1 0.3 0 0.5 0.1 0.2 0.1 0.3 0.3 0.1 0.2 0.1 0.4 0 0.3-0.1 0.5-0.1 0.2-0.3 0.3-0.2 0.1-0.5 0.1zm0.7 1v5.1h1.9v1h-5.5v-1h2.4v-4.1h-2v-1zm8.4 5l0.2 1.1q-0.8 0.1-1.6 0.1-1 0-1.5-0.2-0.6-0.3-0.9-0.8-0.3-0.6-0.3-1.4v-2.8h-1.5v-1h1.5v-1.9h1.3v1.9h2.8v1h-2.8v2.7q0 0.8 0.3 1.1 0.4 0.3 1.2 0.3 0.3 0 0.6 0 0.3 0 0.7-0.1zm11.8-6q-0.3 0-0.5-0.1-0.2-0.1-0.3-0.3-0.1-0.2-0.1-0.5 0-0.2 0.1-0.4 0.1-0.2 0.3-0.3 0.2-0.1 0.5-0.1 0.2 0 0.4 0.1 0.2 0.1 0.3 0.3 0.1 0.2 0.1 0.4 0 0.3-0.1 0.5-0.1 0.2-0.3 0.3-0.2 0.1-0.4 0.1zm0.6 1v5.1h1.9v1h-5.4v-1h2.3v-4.1h-2v-1zm5.5 6.2q-0.7 0-1.2 0-0.5-0.1-0.9-0.2l0.1-1.1q1.2 0.2 2 0.2 0.9 0 1.3-0.2 0.4-0.1 0.4-0.5 0-0.3-0.1-0.5-0.1-0.1-0.5-0.2l-1.4-0.3q-0.6-0.2-0.9-0.4-0.4-0.2-0.5-0.5-0.2-0.3-0.2-0.7 0-0.7 0.3-1.1 0.3-0.5 1-0.7 0.7-0.2 1.8-0.2 0.9 0 1.7 0.2l-0.2 1q-0.8-0.1-1.5-0.1-1 0-1.4 0.2-0.4 0.2-0.4 0.6 0 0.3 0.1 0.4 0.2 0.1 0.5 0.2l1.2 0.3q0.6 0.1 1 0.4 0.4 0.2 0.6 0.5 0.2 0.3 0.2 0.8 0 0.7-0.3 1.1-0.3 0.4-1 0.6-0.7 0.2-1.7 0.2zm16.9-1.2l0.1 1.1q-0.8 0.1-1.6 0.1-0.9 0-1.5-0.2-0.6-0.3-0.9-0.8-0.2-0.6-0.2-1.4v-2.8h-1.6v-1h1.6v-1.9h1.2v1.9h2.8v1h-2.8v2.7q0 0.8 0.4 1.1 0.3 0.3 1.1 0.3 0.3 0 0.6 0 0.3 0 0.8-0.1zm4.7-6q-0.2 0-0.4-0.1-0.2-0.1-0.3-0.3-0.1-0.2-0.1-0.5 0-0.2 0.1-0.4 0.1-0.2 0.3-0.3 0.2-0.1 0.4-0.1 0.3 0 0.5 0.1 0.2 0.1 0.3 0.3 0.1 0.2 0.1 0.4 0 0.3-0.1 0.5-0.1 0.2-0.3 0.3-0.2 0.1-0.5 0.1zm0.7 1v5.1h1.9v1h-5.4v-1h2.3v-4.1h-2v-1zm7.5-0.2q0.7 0 1 0.4 0.3 0.3 0.3 1.1v4.8h-1.3v-4.7q0-0.3-0.1-0.5-0.1-0.1-0.3-0.1-0.6 0-0.6 0.8v4.5h-1.1v-4.8q0-0.5-0.5-0.5-0.6 0-0.6 0.8v4.5h-1.2v-6.1h1.1l0.1 0.7h0.1q0-0.4 0.3-0.6 0.2-0.3 0.7-0.3 0.4 0 0.7 0.3 0.2 0.2 0.3 0.6h0.1q0-0.4 0.3-0.6 0.3-0.3 0.7-0.3zm8.1 3q0 0.4-0.1 0.8h-4.1q0.2 0.7 0.7 1.1 0.6 0.4 1.5 0.4 0.7 0 1.5-0.1l0.2 1.1q-0.9 0.1-1.8 0.1-1.1 0-1.8-0.4-0.7-0.3-1.1-1-0.4-0.8-0.4-1.8 0-1 0.3-1.7 0.3-0.7 1-1.1 0.6-0.4 1.5-0.4 1.2 0 1.9 0.8 0.7 0.8 0.7 2.2zm-4.3-0.2h3.2q0-0.8-0.4-1.2-0.4-0.5-1.1-0.5-0.7 0-1.2 0.5-0.4 0.4-0.5 1.2zm18 2.4l0.2 1.1q-0.9 0.1-1.7 0.1-0.9 0-1.5-0.2-0.6-0.3-0.8-0.8-0.3-0.6-0.3-1.4v-2.8h-1.5v-1h1.5v-1.9h1.2v1.9h2.8v1h-2.8v2.7q0 0.8 0.4 1.1 0.3 0.3 1.2 0.3 0.2 0 0.5 0 0.3 0 0.8-0.1zm4.4 1.2q-0.8 0-1.4-0.4-0.6-0.3-0.9-1-0.3-0.8-0.3-1.8 0-1 0.3-1.7 0.3-0.7 0.9-1.1 0.6-0.4 1.4-0.4 0.9 0 1.5 0.4 0.6 0.4 0.9 1.1 0.3 0.7 0.3 1.7 0 1-0.3 1.8-0.3 0.7-0.9 1-0.6 0.4-1.5 0.4zm0-1.1q0.7 0 1.1-0.5 0.4-0.6 0.4-1.6 0-1-0.4-1.5-0.4-0.6-1.1-0.6-0.6 0-1 0.6-0.4 0.5-0.4 1.5 0 1 0.4 1.6 0.4 0.5 1 0.5zm14.4-5.3q1 0 1.5 0.6 0.5 0.6 0.5 1.7v4h-1.2v-4q0-0.6-0.3-0.9-0.3-0.3-0.8-0.3-1.4 0-1.4 1.7v3.5h-1.3v-8.7h1.3v3.7h0.1q0-0.6 0.4-0.9 0.4-0.4 1.2-0.4zm9.2 3q0 0.4-0.1 0.8h-4.1q0.2 0.7 0.7 1.1 0.6 0.4 1.5 0.4 0.7 0 1.5-0.1l0.2 1.1q-0.9 0.1-1.8 0.1-1.1 0-1.8-0.4-0.7-0.3-1.1-1-0.4-0.8-0.4-1.8 0-1 0.3-1.7 0.4-0.7 1-1.1 0.6-0.4 1.5-0.4 1.2 0 1.9 0.8 0.7 0.8 0.7 2.2zm-4.2-0.2h3.1q0-0.8-0.4-1.2-0.4-0.5-1.1-0.5-0.7 0-1.1 0.5-0.5 0.4-0.5 1.2zm10.6 2.4l1.1 0.1v1l-2 0.1-0.1-1.4h-0.1q0 0.7-0.6 1.1-0.5 0.3-1.4 0.3-0.9 0-1.4-0.4-0.6-0.5-0.6-1.4 0-0.9 0.7-1.5 0.7-0.5 2-0.5 0.8 0 1.3 0.2v-0.4q0-0.6-0.5-0.9-0.4-0.3-1.3-0.3l-1.4-0.1 0.1-1.1 1.2 0.1q1.6 0 2.3 0.7 0.7 0.6 0.7 1.8zm-2.9 0.3q0.6 0 1-0.2 0.4-0.2 0.6-0.5 0.2-0.3 0.2-0.7v-0.3q-0.3-0.1-0.6-0.1-0.3 0-0.7 0-0.8 0-1.1 0.2-0.4 0.2-0.4 0.7 0 0.4 0.3 0.6 0.2 0.3 0.7 0.3zm9.1-5.4q0.6 0 1 0.2 0.4 0.3 0.6 0.8 0.2 0.5 0.2 1.3h-1.2q0-0.7-0.2-1-0.2-0.3-0.7-0.3-0.7 0-1.1 0.7-0.4 0.6-0.4 1.9v1.6h1.5v1h-4.1v-1h1.4v-4.1h-1.2v-1h2.1l0.3 1.6h0.1q0-0.9 0.5-1.3 0.4-0.4 1.2-0.4z"/>
</svg>