<svg version="1.2" xmlns="http://www.w3.org/2000/svg" viewBox="0 0 200 32" width="200" height="32">
	<title>snigdha os docs</title>
	<style>
		.s0 { fill: #754ffe } 
		.s1 { fill: #00ffff } 
	</style>
	<path id="&lt;Compound Path&gt;" fill-rule="evenodd" class="s0" d="m19.8 16.2c-0.3-8 10.7-8.9 10.8-11.6v-4.6l1.1 4.5c1 3.8-0.1 7.7-1.7 10.4l-0.2 0.3v0.1c-0.1 0.4 0.4 1.5 0.5 1.7 0.9 1.5 1.3 0.9 1 2l-1.3 4.9-0.5 0.4c-1.9 0.9-3.5 2.1-4.9 3.2-2 1.8-3.4 3.4-3.6 4-0.3 0.6-0.9 0.5-1.7 0.5-0.7 0-1.3 0.1-1.6-0.5-0.2-0.6-1.6-2.2-3.6-4-1.4-1.1-3-2.3-4.9-3.2l-0.5-0.4-1.3-4.9c-0.3-1.1 0.1-0.5 1-2 0.1-0.2 0.6-1.3 0.5-1.7v-0.1l-0.2-0.3c-1.6-2.7-2.7-6.6-1.7-10.4l1.2-4.5-0.1 4.6c0.1 2.7 11.1 3.6 10.8 11.6zm-3.5 9.1c-1.2-1.9-2.5-2.8-3.7-3.6l-1.8-1.4-0.4 0.2-0.2 0.2c-0.6 0.6-0.5 1.8-0.4 2.6 3.3 1.6 7.1 4.8 8.7 7.3l-0.5-1.7zm-4-8.2l0.2 0.1 0.3 0.1 0.2 0.1c0.3-0.5 0.5-1 0.5-1.6v-0.1l-0.1-0.5v-0.1l-0.1-0.1-0.3-0.6-0.2-0.2-0.2-0.3-2-2.1c-1.2-1.1-2.2-2.2-2.9-3.6q0.1 1.3 0.4 2.5c0.5 1.9 1.2 2.9 1.7 3.8 0.5 1 0.9 1.5 1.7 2.1l0.2 0.1 0.2 0.1 0.1 0.1zm9 7.8c0.1-0.3-0.2-3 0-4 0.3-1.7 1.9-2.3 3.3-2.9-0.7-1.1-1-2.2-0.4-3.5 1.3-2.5 4.9-4.2 6-7.6-0.7 0.5-1.6 1-2.6 1.5-3.1 1.6-7 3.6-6.6 8 0.1 1.1-0.7 0.9-1.6 0.9-1 0-1.7 0.2-1.7-0.9 0.4-4.4-3.5-6.4-6.6-8-1-0.5-1.9-1-2.7-1.5 1.2 3.4 4.8 5.1 6.1 7.6 0.6 1.3 0.3 2.4-0.4 3.5 1.4 0.6 3 1.2 3.3 2.9 0.2 1-0.1 3.7 0 4l0.5 0.9 1.2 2.8 0.3 0.7 0.2-0.7 1.2-2.8zm7.3-5.5c0.5 0.2 0.9 0.7 1.1 1.2l0.5-1.8c-0.2-0.2-0.5-0.6-0.8-1.1l-0.2 0.7-0.1 0.1zm-7.9 9.5l-0.6 1.8c1.6-2.5 5.5-5.7 8.8-7.3 0-0.8 0.1-2-0.4-2.7l-0.2-0.2-0.5-0.2-1.8 1.4c-1.2 0.8-2.5 1.7-3.6 3.7zm5.9-12l0.1-0.1 0.2-0.1 0.2-0.1c0.8-0.6 1.2-1.1 1.7-2.1 0.5-0.9 1.2-1.9 1.7-3.8q0.3-1.2 0.4-2.5c-0.7 1.4-1.7 2.5-2.9 3.6l-2 2.1-0.2 0.2-0.2 0.3-0.3 0.6-0.1 0.2-0.1 0.5v0.1c0 0.6 0.2 1.1 0.5 1.6l0.2-0.1 0.3-0.1 0.2-0.1zm-4.2 4.6v1.7l0.2-0.2 0.1-0.1 0.1-0.1 0.1-0.1 0.2-0.2 0.9-0.9 1.4-1c1.4-0.9 2.3-1.5 2.8-3l0.2-0.6c-0.9 0.8-1.9 1.2-3.1 1.8-1.5 0.6-2.9 1.2-2.9 2.7zm-12.8-3.2l-0.1-0.1-0.2-0.6c-0.3 0.5-0.6 0.8-0.8 1.1l0.5 1.7c0.2-0.5 0.6-0.9 1.1-1.2zm3.8 0.5c-1.2-0.5-2.1-1-3.1-1.8l0.2 0.6c0.5 1.5 1.4 2.1 2.8 3.1l1.4 1 0.9 0.8 0.2 0.2 0.1 0.1 0.1 0.1 0.1 0.1 0.2 0.2v-1.7c0-1.5-1.4-2-2.9-2.7z"/>
	<path id="SNIGDHA OS | docs" class="s0" aria-label="SNIGDHA OS | docs"  d="m34.8 13.2q0 1.7 0.8 2.6 0.7 0.9 2.4 1.3l0.9 0.1q1.5 0.4 2 0.8 0.5 0.3 0.5 1.2 0 0.8-0.5 1.3-0.6 0.5-1.6 0.5-2.1 0-2.3-3l-2.4 0.4q0.2 2 1.3 2.9 1.2 0.9 3.4 0.9 2.2 0 3.4-0.9 1.2-1 1.2-2.7 0-1.7-0.8-2.6-0.7-0.9-2.5-1.3l-1-0.2q-1.4-0.4-1.9-0.7-0.5-0.4-0.5-1.2 0-0.9 0.6-1.4 0.5-0.5 1.5-0.5 0.9 0 1.5 0.8 0.5 0.7 0.6 2.1l2.4-0.3q-0.2-1.9-1.4-2.9-1.1-0.9-3.1-0.9-4.5 0-4.5 3.7zm21.1 8.8v-12.3h-1.8v9.2l-5.2-9.2h-3.1v12.3h1.8v-9.1l5.1 9.1zm2.8 0h3v-12.3h-3zm14.9 0v-6.4h-4.4v1.5h1.8v0.4q0 1.9-0.6 2.7-0.5 0.8-1.6 0.8-1.1 0-1.6-1.2-0.4-1.3-0.4-4 0-2.8 0.5-3.9 0.4-1.1 1.5-1.1 1.1 0 1.5 0.6 0.5 0.7 0.6 2.1l2.4-0.4q-0.2-1.8-1.1-2.7-1-0.9-3.2-0.9-2.9 0-4.1 1.6-1.1 1.5-1.1 4.7 0 3.2 1.1 4.9 1.1 1.6 3.8 1.6 1.8 0 2.9-1.5l0.5 1.2zm7.1-12.3h-4.4v12.3h4.4q2.9 0 4-1.6 1.1-1.6 1.1-4.5 0-3.6-1.5-5-1.2-1.2-3.6-1.2zm-0.5 11.2h-0.9v-10.1h0.9q1 0 1.6 0.8 0.6 0.7 0.8 1.7 0.1 1.1 0.1 2.6 0 1.5-0.1 2.5-0.2 1.1-0.8 1.8-0.6 0.7-1.6 0.7zm17.4 1.1v-12.3h-3.1v5.5h-3.5v-5.5h-3v12.3h3v-5.4h3.5v5.4zm4.3-3.4h4.4l1 3.4h2.9l-3.8-12.3h-3.5l-3.7 12.3h1.6zm2.3-7.4l1.7 6h-3.5zm16.4 11q2.9 0 4.1-1.7 1.1-1.6 1.1-4.6 0-3.1-1.1-4.7-1.2-1.8-4.1-1.8-3.1 0-4.2 1.9-1 1.7-1 4.5 0 4.8 2.6 6 1.1 0.4 2.6 0.4zm-2.2-6.4q0-1.5 0.2-2.6 0.2-1.1 0.7-1.8 0.5-0.8 1.3-0.8 2.2 0 2.2 5.2 0 5.2-2.2 5.2-0.8 0-1.3-0.7-0.5-0.8-0.7-1.8-0.2-1.1-0.2-2.7zm8.9-2.6q0 1.7 0.8 2.6 0.7 0.9 2.4 1.2l0.9 0.2q1.5 0.4 2 0.7 0.5 0.4 0.5 1.2 0 0.9-0.6 1.4-0.5 0.5-1.5 0.5-2.1 0-2.4-3l-2.4 0.4q0.3 1.9 1.4 2.9 1.1 0.9 3.4 0.9 2.2 0 3.4-1 1.2-0.9 1.2-2.6 0-1.8-0.8-2.6-0.7-0.9-2.5-1.3l-1-0.3q-1.4-0.3-1.9-0.7-0.5-0.4-0.5-1.2 0-0.8 0.5-1.3 0.6-0.6 1.5-0.6 1 0 1.6 0.8 0.5 0.8 0.6 2.2l2.4-0.3q-0.3-2-1.4-2.9-1.1-1-3.2-1-4.4 0-4.4 3.8zm18.5 10.6v-14.9h-3.1v14.9z"/>
	<path id="SNIGDHA OS | docs" class="s1" aria-label="SNIGDHA OS | docs"  d="m161 22v-12.9l-3 0.3v3.2q-0.9-0.4-1.8-0.4-4.1 0-4.1 5.2 0 4.8 3.6 4.8 1.4 0 2.6-1.1l0.6 0.9zm-4.3-1.2q-1.5 0-1.5-3.5 0-3.5 1.9-3.5 0.5 0 0.9 0.2v6.1q-0.5 0.7-1.3 0.7zm15.6-3.6q0-5-4.5-5-4.6 0-4.6 5 0 5 4.6 5 4.5 0 4.5-5zm-6.1 0q0-1.9 0.3-2.7 0.3-0.9 1.3-0.9 0.9 0 1.2 0.9 0.3 0.8 0.3 2.7 0 1.9-0.3 2.7-0.3 0.9-1.2 0.9-1 0-1.3-0.9-0.3-0.8-0.3-2.7zm12.2-3.6q1.3 0 1.3 2.4l2.5-0.3q-0.1-1.8-1-2.7-0.9-0.8-3-0.8-2.6 0-3.5 1.5-0.8 1.3-0.8 3.5 0 3.7 2.1 4.6 0.9 0.4 2.2 0.4 2.1 0 3-0.9 0.9-0.9 1-2.8l-2.5-0.1q0 2.4-1.3 2.4-0.8 0-1.2-0.8-0.3-0.8-0.3-2.8 0-2.1 0.3-2.8 0.3-0.8 1.2-0.8zm10.6 2.6l-0.8-0.3q-1-0.3-1.5-0.6-0.4-0.3-0.4-0.8 0-0.9 1.3-0.9 1.5 0 1.6 1.9l2.5-0.3q-0.2-1.5-1.2-2.3-1-0.7-2.8-0.7-1.8 0-2.9 0.7-1 0.8-1 2.1 0 1.4 0.6 2.1 0.7 0.7 2 1.1l0.8 0.2q2.1 0.6 2.1 1.5 0 0.9-1.4 0.9-0.8 0-1.3-0.6-0.5-0.5-0.6-1.4l-2.4 0.3q0.2 1.6 1.2 2.4 1 0.7 2.9 0.7 1.9 0 3-0.8 1.1-0.8 1.1-2.1 0-1.4-0.7-2.1-0.8-0.6-2.1-1z"/>
</svg>